<?xml version="1.0" standalone="no"?>
<!DOCTYPE svg PUBLIC "-//W3C//DTD SVG 20010904//EN"
 "http://www.w3.org/TR/2001/REC-SVG-20010904/DTD/svg10.dtd">
<svg version="1.0" xmlns="http://www.w3.org/2000/svg"
 width="260.000000pt" height="260.000000pt" viewBox="0 0 260.000000 260.000000"
 preserveAspectRatio="xMidYMid meet">
<metadata>
Created by potrace 1.14, written by Peter Selinger 2001-2017
</metadata>
<g transform="translate(0.000000,260.000000) scale(0.100000,-0.100000)"
fill="#000000" stroke="none">
<path d="M1141 2510 c-389 -49 -744 -298 -925 -649 -50 -98 -96 -227 -117
-336 -18 -92 -18 -348 0 -440 87 -437 395 -790 811 -929 499 -166 1044 7 1356
429 358 484 309 1148 -115 1573 -217 219 -506 346 -810 356 -69 3 -159 1 -200
-4z m268 -80 c128 -13 250 -48 368 -105 121 -57 199 -111 295 -203 158 -151
260 -324 319 -542 30 -109 37 -353 14 -475 -77 -413 -363 -741 -762 -875 -79
-26 -133 -37 -133 -27 0 2 -18 166 -40 366 -22 199 -40 370 -40 379 0 10 17
25 41 36 25 11 50 34 67 60 14 22 28 43 29 46 2 2 73 -65 158 -150 100 -100
158 -151 164 -145 17 17 33 155 26 223 -13 118 -63 245 -125 315 -16 19 -30
37 -30 41 0 3 97 6 215 6 118 0 215 3 215 6 0 18 -79 120 -123 160 -106 95
-218 143 -357 153 l-94 6 184 182 c102 100 182 184 178 188 -28 28 -234 33
-341 9 -121 -28 -211 -75 -301 -158 -21 -20 -41 -36 -43 -36 -3 0 -30 23 -61
51 -72 63 -189 123 -288 145 -58 12 -106 15 -199 12 -67 -3 -127 -8 -134 -13
-9 -5 44 -65 175 -196 l189 -189 -70 0 c-176 0 -350 -89 -460 -236 -25 -32
-45 -65 -45 -71 0 -10 49 -13 211 -13 l210 0 -34 -42 c-87 -108 -127 -228
-127 -373 0 -85 10 -159 25 -173 3 -3 109 97 235 223 227 227 230 229 249 210
18 -20 17 -30 -37 -520 -31 -275 -57 -502 -59 -504 -8 -10 -146 30 -231 67
-445 192 -723 664 -675 1145 59 573 524 1005 1104 1026 20 0 82 -4 138 -9z
m-474 -425 c186 -48 316 -167 372 -342 25 -79 30 -143 12 -143 -6 0 -32 17
-58 38 -25 21 -62 49 -81 62 -39 25 -400 380 -400 392 0 13 93 9 155 -7z m865
7 c0 -13 -379 -386 -386 -379 -7 7 -51 127 -61 164 -13 52 156 171 292 204 74
18 155 24 155 11z m-727 -425 c72 -33 115 -65 96 -71 -8 -2 -37 -7 -66 -10
-29 -4 -71 -13 -94 -21 -32 -11 -91 -15 -248 -15 l-206 1 34 29 c44 37 157 97
207 109 22 6 80 9 129 8 73 -2 101 -8 148 -30z m720 18 c74 -19 142 -54 192
-99 l40 -35 -212 -1 c-130 0 -223 4 -240 11 -15 6 -54 16 -86 23 -32 6 -59 16
-60 21 -3 13 97 66 153 81 62 17 145 17 213 -1z m-648 -192 c-4 -10 -10 -30
-12 -44 -3 -17 -70 -91 -199 -220 l-194 -194 0 40 c0 137 94 305 206 371 50
29 146 63 183 63 18 1 22 -3 16 -16z m207 6 c11 -6 26 -26 34 -45 12 -29 12
-39 0 -68 -17 -40 -42 -56 -86 -56 -43 0 -90 47 -90 90 0 65 82 111 142 79z
m215 -26 c86 -34 176 -120 217 -208 28 -59 60 -201 49 -218 -3 -5 -83 68 -178
163 -158 158 -173 176 -178 214 -3 22 -8 49 -12 59 -10 25 22 22 102 -10z
m-91 -215 c19 -61 -9 -119 -62 -132 -35 -9 -90 20 -104 54 -17 42 -10 63 27
71 17 3 46 16 64 27 38 23 63 16 75 -20z m-151 -203 c15 -9 24 -67 61 -393 23
-210 45 -386 48 -391 8 -13 -127 -23 -210 -16 -69 7 -73 9 -69 29 3 11 23 183
45 381 22 198 43 379 46 402 l6 43 28 -23 c15 -12 35 -27 45 -32z"/>
</g>
</svg>
